<?xml version="1.0" encoding="utf-8"?>
<!-- Generator: Adobe Illustrator 16.0.0, SVG Export Plug-In . SVG Version: 6.00 Build 0)  -->
<!DOCTYPE svg PUBLIC "-//W3C//DTD SVG 1.1//EN" "http://www.w3.org/Graphics/SVG/1.1/DTD/svg11.dtd">
<svg version="1.1" id="Layer_1" xmlns="http://www.w3.org/2000/svg" xmlns:xlink="http://www.w3.org/1999/xlink" x="0px" y="0px"
	 width="512px" height="512px" viewBox="-58.182 0 512 512" enable-background="new -58.182 0 512 512" xml:space="preserve">
<g>
	<g>
		<path fill="#291238" d="M142.984,410.357c-16.078,0-29.111,13.049-29.111,29.11c0,16.092,13.034,29.112,29.111,29.112
			c16.078,0,29.113-13.021,29.113-29.112C172.096,423.406,159.062,410.357,142.984,410.357z M142.984,449.178
			c-5.352,0-9.702-4.349-9.702-9.708c0-5.345,4.351-9.692,9.702-9.692c5.354,0,9.702,4.35,9.702,9.692
			C152.686,444.829,148.336,449.178,142.984,449.178z"/>
	</g>
</g>
<g>
	<g>
		<path fill="#291238" d="M360.938,304.824l-4.352,1.934c-22.176-116.046-44.563-159.225-47.336-164.264
			c-4.148-8.942-11.826-15.373-20.695-17.705V61.014c0-21.436-17.388-38.814-38.822-38.814H45.945
			c-21.437,0-38.821,17.378-38.821,38.814v388.164C7.125,470.615,24.508,488,45.945,488h203.788c21.436,0,38.82-17.385,38.82-38.822
			v-26.937l104.083-46.54L360.938,304.824z M276.67,144.243c1.479-0.667,2.999-1.002,4.507-1.002c4.423,0,8.458,2.914,10.563,7.604
			l0.199,0.446l0.24,0.419c0.241,0.413,23.355,41.643,46.214,163.204l-117.417,52.511l-5.885-6.524l-110.537-59.857
			c-3.66-1.99-6.317-5.26-7.484-9.24c-1.173-3.979-0.703-8.188,1.314-11.854c2.787-5.076,8.125-8.217,13.932-8.217
			c2.623,0,5.132,0.625,7.449,1.877l48.459,26.27L88.306,121.194c-1.671-3.731-0.589-7.385,0.199-9.226
			c1.428-3.313,4.059-6.027,7.222-7.442c1.771-0.789,3.795-1.208,5.862-1.208c4.414,0,9.795,2.054,11.842,6.638l34.096,76.222
			l16.332,36.521l0.008-0.008c0.021,0.057,0.043,0.106,0.063,0.164c2.189,4.891,7.927,7.078,12.822,4.891
			c4.892-2.182,7.088-7.926,4.897-12.814c-0.027-0.058-0.056-0.1-0.078-0.158h0.008l-16.532-36.965
			c-1.563-3.505-0.306-7.258,0.59-9.168c1.643-3.512,4.578-6.482,7.848-7.947c0.283-0.121,0.576-0.234,0.859-0.34l0.47-0.186
			c1.827-0.775,3.952-1.188,6.147-1.188c4.685,0,10.285,1.947,12.227,6.297l16.518,36.916h0.008c0.021,0.05,0.035,0.105,0.058,0.156
			c2.188,4.891,7.938,7.086,12.828,4.896c4.891-2.188,7.08-7.926,4.892-12.822c-0.028-0.05-0.058-0.099-0.085-0.148l0.015-0.008
			l-9.851-22.025c-2.502-5.608,1.732-14.116,8.557-17.165c1.876-0.839,4.066-1.279,6.34-1.279c4.637,0,10.207,1.961,12.168,6.341
			l4.379,9.814l5.459,12.21h0.016c0.014,0.05,0.042,0.106,0.07,0.157c2.188,4.897,7.918,7.087,12.82,4.897
			c4.893-2.188,7.08-7.925,4.893-12.823c-0.028-0.049-0.059-0.099-0.086-0.148h0.016l-5.473-12.219
			C264.359,156.725,269.563,147.421,276.67,144.243z M95.313,318.102l28.26,15.31v18.723H65.348v-58.225h12.289
			c0.213,1.137,0.483,2.259,0.811,3.382C81.084,306.246,87.076,313.65,95.313,318.102z M65.348,245.393v-58.227h31.203
			l26.043,58.227H65.348z M70.587,129.118l4.264,9.532h-9.502V80.425h58.225v11.472c-5.8-5.04-13.597-7.989-21.982-7.989
			c-4.776,0-9.547,1.002-13.789,2.9C80.248,90.191,74,96.567,70.674,104.307C67.14,112.53,67.11,121.343,70.587,129.118z
			 M172.096,138.65L172.096,138.65V80.424h58.232v54.032c-4.25,0.249-8.415,1.237-12.141,2.899
			c-0.867,0.392-1.705,0.832-2.545,1.295H172.096L172.096,138.65z M26.534,61.014c0-10.704,8.706-19.411,19.411-19.411h203.788
			c10.703,0,19.402,8.707,19.402,19.411v65.345c-0.128,0.057-0.257,0.106-0.398,0.172c-6.354,2.836-12.082,7.91-16.092,14.059
			c-0.938-0.661-1.904-1.271-2.914-1.834V70.715c0-5.36-4.336-9.702-9.709-9.702h-77.627c-5.359,0-9.709,4.342-9.709,9.702v77.637
			c0,0.924,0.135,1.812,0.377,2.666l-10.078-22.531V70.716c0-5.36-4.343-9.702-9.702-9.702H55.647c-5.359,0-9.702,4.342-9.702,9.702
			v77.636c0,5.36,4.342,9.702,9.702,9.702h27.882l4.344,9.709H55.648c-5.36,0-9.702,4.343-9.702,9.702V255.1
			c0,5.36,4.342,9.702,9.702,9.702h29.709c-1.5,1.771-2.836,3.702-3.98,5.792c-0.704,1.279-1.314,2.588-1.848,3.909H55.648
			c-5.359,0-9.702,4.351-9.702,9.709v77.629c0,5.359,4.342,9.709,9.702,9.709h77.634c5.36,0,9.702-4.35,9.702-9.709v-17.925
			l9.702,5.259v12.666c0,5.359,4.35,9.709,9.709,9.709h31.594l8.039,4.351l-1.664,0.738l6.396,14.314H26.534V61.014z
			 M269.136,449.178c0,10.704-8.698,19.404-19.403,19.404H142.984H45.945c-10.705,0-19.411-8.7-19.411-19.404v-38.818h116.45h72.461
			l16.617,37.155l37.073-16.588V449.178L269.136,449.178z M241.843,421.871l-15.835-35.439l125.12-55.964l15.865,35.425
			L241.843,421.871z"/>
	</g>
</g>
</svg>
