<?xml version="1.0" encoding="utf-8"?>
<!-- Generator: Adobe Illustrator 16.0.0, SVG Export Plug-In . SVG Version: 6.00 Build 0)  -->
<!DOCTYPE svg PUBLIC "-//W3C//DTD SVG 1.1//EN" "http://www.w3.org/Graphics/SVG/1.1/DTD/svg11.dtd">
<svg version="1.1" id="Layer_1" xmlns="http://www.w3.org/2000/svg" xmlns:xlink="http://www.w3.org/1999/xlink" x="0px" y="0px"
	 width="512px" height="512px" viewBox="0 0 512 512" enable-background="new 0 0 512 512" xml:space="preserve">
<g id="XMLID_1423_">
	<g id="XMLID_2880_">
		<g id="XMLID_924_">
			<path id="XMLID_1259_" fill="#291238" d="M458.133,409.132c5.239-7.518,8.322-16.644,8.322-26.481v-9.107
				c0-25.604-20.83-46.434-46.433-46.434s-46.433,20.83-46.433,46.434v9.107c0,9.838,3.084,18.964,8.323,26.481
				c-18.143,0.54-34.12,9.816-43.87,23.766c-9.748-13.949-25.727-23.224-43.87-23.766c5.239-7.518,8.323-16.644,8.323-26.481v-9.107
				c0-25.604-20.83-46.434-46.433-46.434s-46.433,20.83-46.433,46.434v9.107c0,9.838,3.083,18.964,8.323,26.481
				c-18.183,0.542-34.191,9.855-43.933,23.854c-9.743-13.999-25.752-23.312-43.933-23.854c5.24-7.518,8.323-16.644,8.323-26.481
				v-9.107c0-25.604-20.83-46.434-46.433-46.434c-25.603,0-46.432,20.83-46.432,46.434v9.107c0,9.838,3.083,18.964,8.323,26.481
				C24.015,410.022,0,434.566,0,464.631v37.308c0,5.521,4.477,9.997,9.998,9.997h492.005c5.521,0,9.997-4.477,9.997-9.997v-37.308
				C512,434.566,487.985,410.022,458.133,409.132z M393.585,373.543c0-14.578,11.86-26.438,26.438-26.438
				c14.578,0,26.438,11.859,26.438,26.438v9.107c0,14.578-11.859,26.438-26.438,26.438c-14.577,0-26.438-11.86-26.438-26.438
				V373.543z M229.626,373.543c0-14.578,11.86-26.438,26.438-26.438s26.438,11.859,26.438,26.438v9.107
				c0,14.578-11.86,26.438-26.438,26.438s-26.438-11.86-26.438-26.438V373.543L229.626,373.543z M65.54,373.543
				c0-14.578,11.86-26.438,26.438-26.438c14.578,0,26.438,11.859,26.438,26.438v9.107c0,14.578-11.86,26.438-26.438,26.438
				c-14.577,0-26.438-11.86-26.438-26.438V373.543z M163.959,491.941H19.995v-27.311c0-19.601,15.946-35.547,35.547-35.547h72.871
				c19.6,0,35.547,15.945,35.547,35.547L163.959,491.941L163.959,491.941z M184.082,464.631c0-19.601,15.946-35.547,35.547-35.547
				H292.5c19.6,0,35.547,15.945,35.547,35.547v27.311H184.083L184.082,464.631L184.082,464.631z M492.005,491.941H348.041v-27.311
				c0-19.601,15.945-35.547,35.547-35.547h72.871c19.6,0,35.547,15.945,35.547,35.547L492.005,491.941L492.005,491.941z"/>
			<path id="XMLID_1309_" fill="#291238" d="M186.954,268.777c-2.629,0-5.208,1.068-7.068,2.93
				c-1.859,1.857-2.929,4.429-2.929,7.068c0,2.629,1.069,5.208,2.929,7.066c1.86,1.859,4.439,2.931,7.068,2.931
				s5.208-1.069,7.067-2.931c1.859-1.869,2.93-4.438,2.93-7.066c0-2.631-1.07-5.211-2.93-7.068
				C192.162,269.846,189.583,268.777,186.954,268.777z"/>
			<path id="XMLID_1315_" fill="#291238" d="M63.984,288.77h82.979c5.521,0,9.998-4.477,9.998-9.998
				c0-5.521-4.477-9.997-9.998-9.997H73.981v-70.792c0-18.585,15.121-33.705,33.705-33.705h16.531v46.737
				c0,4.008,2.393,7.627,6.08,9.198c3.687,1.57,7.955,0.788,10.845-1.989l35.814-34.411v30.099c0,5.521,4.477,9.997,9.998,9.997
				s9.998-4.477,9.998-9.997v-30.099l35.814,34.411c1.899,1.825,4.395,2.789,6.929,2.789c1.321,0,2.652-0.262,3.916-0.8
				c3.688-1.571,6.08-5.19,6.08-9.198v-46.737h16.531c18.584,0,33.705,15.119,33.705,33.705v70.792h-72.982
				c-5.521,0-9.998,4.477-9.998,9.997c0,5.521,4.477,9.998,9.998,9.998h82.979c5.521,0,9.998-4.477,9.998-9.998v-80.79
				c0-29.61-24.091-53.7-53.7-53.7h-32.817c10.927-11.501,17.654-27.03,17.654-44.109v-22.98V66.56v-2.393
				c0-35.346-28.757-64.104-64.104-64.104S122.85,28.821,122.85,64.167v2.393v10.633v22.98c0,17.079,6.727,32.608,17.654,44.109
				h-32.818c-29.609,0-53.699,24.09-53.699,53.7v80.79C53.987,284.293,58.463,288.77,63.984,288.77z M144.212,164.277h24.215
				l-24.215,23.266V164.277L144.212,164.277z M229.695,187.544l-24.215-23.266h24.215V187.544L229.695,187.544z M142.845,64.168
				c0-24.322,19.787-44.109,44.109-44.109c22.774,0,41.574,17.35,43.873,39.526L209.93,47.308c-4.21-2.473-9.59-1.543-12.727,2.199
				c-9.42,11.241-23.234,17.688-37.901,17.688h-16.458V66.56V64.168z M142.845,100.173V87.19h16.457
				c17.722,0,34.555-6.7,47.336-18.626l24.426,14.351v17.259c0,24.322-19.787,44.109-44.109,44.109S142.845,124.495,142.845,100.173
				z"/>
			<path id="XMLID_1330_" fill="#291238" d="M322.738,162.72c1.628,1.034,3.49,1.559,5.36,1.559c1.445,0,2.897-0.314,4.249-0.948
				l33.888-15.914h124.184c11.829,0,21.454-9.624,21.454-21.454V21.517c0-11.83-9.625-21.454-21.454-21.454H339.555
				c-11.829,0-21.453,9.624-21.453,21.454V154.28C318.102,157.701,319.851,160.885,322.738,162.72z M338.096,21.517
				c0-0.805,0.654-1.458,1.459-1.458h150.864c0.806,0,1.459,0.654,1.459,1.458v104.445c0,0.805-0.653,1.458-1.459,1.458H364.005
				c-1.47,0-2.921,0.324-4.25,0.948l-21.659,10.171V21.517z"/>
			<path id="XMLID_1331_" fill="#291238" d="M367.343,62.624h95.288c5.521,0,9.998-4.477,9.998-9.998s-4.478-9.998-9.998-9.998
				h-95.288c-5.521,0-9.997,4.477-9.997,9.998S361.821,62.624,367.343,62.624z"/>
			<path id="XMLID_1332_" fill="#291238" d="M367.343,102.613h65.736c5.521,0,9.998-4.477,9.998-9.997
				c0-5.521-4.477-9.998-9.998-9.998h-65.736c-5.521,0-9.997,4.477-9.997,9.998C357.346,98.137,361.821,102.613,367.343,102.613z"/>
		</g>
	</g>
</g>
</svg>
