<?xml version="1.0" encoding="utf-8"?>
<!-- Generator: Adobe Illustrator 16.0.0, SVG Export Plug-In . SVG Version: 6.00 Build 0)  -->
<!DOCTYPE svg PUBLIC "-//W3C//DTD SVG 1.1//EN" "http://www.w3.org/Graphics/SVG/1.1/DTD/svg11.dtd">
<svg version="1.1" id="Layer_1" xmlns="http://www.w3.org/2000/svg" xmlns:xlink="http://www.w3.org/1999/xlink" x="0px" y="0px"
	 width="512px" height="512px" viewBox="0 0 512 512" enable-background="new 0 0 512 512" xml:space="preserve">
<path fill="#291238" d="M296,432h-16v-78.4c0-4.418-3.582-8-8-8s-8,3.582-8,8V432H56V272h66.56c4.418,0,8-3.582,8-8s-3.582-8-8-8H48
	c-4.418,0-8,3.582-8,8v168H24c-4.418,0-8,3.582-8,8v16c0,22.092,17.909,40,40,40h208c22.092,0,40-17.908,40-40v-16
	C304,435.582,300.418,432,296,432z M288,456c0,13.255-10.745,24-24,24h-16v-8c0-4.418-3.582-8-8-8s-8,3.582-8,8v8H88v-8
	c0-4.418-3.582-8-8-8s-8,3.582-8,8v8H56c-13.255,0-24-10.745-24-24v-8h256V456z"/>
<path fill="#291238" d="M432,64h16c4.418,0,8-3.582,8-8s-3.582-8-8-8h-16c-13.255,0-24,10.745-24,24v8h-8c-4.418,0-8,3.582-8,8
	s3.582,8,8,8h8v24c0,4.418,3.582,8,8,8s8-3.582,8-8V96h8c4.418,0,8-3.582,8-8s-3.582-8-8-8h-8v-8C424,67.582,427.582,64,432,64z"/>
<path fill="#291238" d="M472,16h-96c-13.255,0-24,10.745-24,24v16c0,4.418,3.582,8,8,8s8-3.582,8-8V40c0-4.418,3.582-8,8-8h96
	c4.418,0,8,3.582,8,8v96c0,4.418-3.582,8-8,8h-96c-4.418,0-8-3.582-8-8V88c0-4.418-3.582-8-8-8s-8,3.582-8,8v48
	c0,13.255,10.745,24,24,24h96c13.255,0,24-10.745,24-24V40C496,26.745,485.255,16,472,16z"/>
<path fill="#291238" d="M392,336c0,17.674,14.327,32,32,32s32-14.326,32-32s-14.327-32-32-32S392,318.326,392,336z M440,336
	c0,8.836-7.163,16-16,16s-16-7.164-16-16s7.163-16,16-16S440,327.164,440,336z"/>
<path fill="#291238" d="M472,264h-96c-13.255,0-24,10.745-24,24v96c0,13.255,10.745,24,24,24h96c13.255,0,24-10.745,24-24v-16
	c0-4.418-3.582-8-8-8s-8,3.582-8,8v16c0,4.418-3.582,8-8,8h-96c-4.418,0-8-3.582-8-8v-96c0-4.418,3.582-8,8-8h96
	c4.418,0,8,3.582,8,8v48c0,4.418,3.582,8,8,8s8-3.582,8-8v-48C496,274.745,485.255,264,472,264z"/>
<path fill="#291238" d="M195.76,110.8c1.273,0.789,2.742,1.205,4.24,1.2c1.252-0.007,2.485-0.309,3.6-0.88l48-24
	c3.932-2.015,5.487-6.835,3.472-10.768c-0.765-1.493-1.979-2.708-3.472-3.473l-48-24c-3.946-1.988-8.756-0.401-10.744,3.544
	c-0.559,1.109-0.852,2.333-0.856,3.576v48C191.995,106.764,193.416,109.335,195.76,110.8z M208,68.96L230.08,80L208,91.04V68.96z"/>
<path fill="#291238" d="M216,152c39.765,0,72-32.235,72-72S255.765,8,216,8s-72,32.235-72,72S176.235,152,216,152z M216,24
	c30.928,0,56,25.072,56,56s-25.072,56-56,56s-56-25.072-56-56S185.072,24,216,24z"/>
<path fill="#291238" d="M296,184c2.518,0,4.889-1.186,6.4-3.2l24-32c2.647-3.537,1.927-8.551-1.61-11.198
	c-3.532-2.645-8.539-1.93-11.19,1.599l-24,32c-2.65,3.534-1.934,8.549,1.601,11.2C292.585,183.438,294.27,184,296,184z"/>
<path fill="#291238" d="M313.6,212.8c1.512,2.015,3.883,3.2,6.4,3.2c1.73,0,3.415-0.562,4.8-1.6l32-24
	c3.535-2.651,4.251-7.666,1.601-11.2c-2.651-3.535-7.666-4.251-11.2-1.6l-32,24C311.665,204.251,310.949,209.266,313.6,212.8
	L313.6,212.8z"/>
<path fill="#291238" d="M392,230.4c-0.779-4.349-4.938-7.242-9.286-6.462c-0.105,0.019-0.21,0.04-0.313,0.063l-40,8
	c-4.419,0.442-7.643,4.382-7.2,8.8c0.441,4.418,4.382,7.642,8.8,7.2h1.6l40-8c4.35-0.78,7.243-4.937,6.463-9.286
	C392.044,230.609,392.023,230.504,392,230.4z"/>
<path fill="#291238" d="M24,232h96c4.418,0,8-3.582,8-8V96c0-4.418-3.582-8-8-8H24c-4.418,0-8,3.582-8,8v128
	C16,228.418,19.582,232,24,232z M32,104h80v112H32V104z"/>
<path fill="#291238" d="M88,120H72c-4.418,0-8,3.582-8,8s3.582,8,8,8h16c4.418,0,8-3.582,8-8S92.418,120,88,120z"/>
<path fill="#291238" d="M88,152H56c-4.418,0-8,3.582-8,8s3.582,8,8,8h32c4.418,0,8-3.582,8-8S92.418,152,88,152z"/>
<path fill="#291238" d="M88,184H56c-4.418,0-8,3.582-8,8s3.582,8,8,8h32c4.418,0,8-3.582,8-8S92.418,184,88,184z"/>
<path fill="#291238" d="M288.96,229.6c-2.209-3.844-7.116-5.169-10.96-2.96c-3.844,2.209-5.169,7.116-2.96,10.96l35.28,61.041
	l-128,48c0,0,0,0-0.56,0h-0.64l-20.8,12l-13.84,8c-3.68,2.127-8.055,2.703-12.16,1.6c-4.083-1.104-7.563-3.778-9.68-7.44l-16-27.68
	c-3.908-7.519-1.277-16.779,6-21.12l27.68-16l20,34.641c1.435,2.484,4.091,4.011,6.96,4c4.418,0.018,8.014-3.551,8.032-7.969
	c0.006-1.415-0.364-2.807-1.071-4.031L155.6,286.96l100.4-82.8l3.279,5.68c2.21,3.844,7.117,5.169,10.961,2.96
	c3.844-2.209,5.169-7.116,2.96-10.96l-8-13.84c-1.187-2.029-3.206-3.433-5.521-3.84c-2.327-0.439-4.729,0.176-6.56,1.68l-112,92.32
	l-34.08,19.68c-12.578,7.326-18.627,22.219-14.72,36.24l-8,4.561c-11.494,6.6-15.461,21.27-8.86,32.764
	c3.183,5.543,8.445,9.587,14.621,11.236c2.036,0.539,4.134,0.808,6.24,0.799c4.209-0.018,8.342-1.119,12-3.199l8-4.561
	c3.843,3.971,8.676,6.842,14,8.32c2.734,0.765,5.562,1.142,8.4,1.12c5.623,0.013,11.147-1.479,16-4.32l6.96-4l16,27.76
	c6.62,11.446,21.251,15.381,32.72,8.801c11.485-6.618,15.431-21.292,8.813-32.777c-0.004-0.008-0.009-0.015-0.013-0.022
	l-14.56-25.36l120-45.04c2.203-0.828,3.93-2.584,4.721-4.801c0.787-2.189,0.583-4.613-0.561-6.64L288.96,229.6z M100,366.32
	c-1.84,1.063-4.027,1.352-6.08,0.8c-2.049-0.532-3.804-1.856-4.88-3.681c-1.064-1.84-1.352-4.027-0.8-6.08
	c0.552-2.063,1.906-3.82,3.76-4.879l6.96-4l8,13.84L100,366.32z M205.28,388.721c1.064,1.84,1.352,4.027,0.8,6.079
	c-0.571,2.034-1.922,3.759-3.76,4.8c-3.803,2.185-8.656,0.9-10.88-2.88l-16-27.76l13.28-7.601h0.64L205.28,388.721z"/>
</svg>
