<?xml version="1.0" encoding="utf-8"?>
<!-- Generator: Adobe Illustrator 16.0.0, SVG Export Plug-In . SVG Version: 6.00 Build 0)  -->
<!DOCTYPE svg PUBLIC "-//W3C//DTD SVG 1.1//EN" "http://www.w3.org/Graphics/SVG/1.1/DTD/svg11.dtd">
<svg version="1.1" id="Capa_1" xmlns="http://www.w3.org/2000/svg" xmlns:xlink="http://www.w3.org/1999/xlink" x="0px" y="0px"
	 width="512px" height="512px" viewBox="0 0 512 512" enable-background="new 0 0 512 512" xml:space="preserve">
<g>
	<g>
		<path fill="#291238" d="M492.075,398.739h-13.163v-253.28c0-18.471-15.027-33.499-33.499-33.499h-48.318V64.022
			c0-14.29-11.625-25.916-25.915-25.916H140.82c-14.29,0-25.915,11.626-25.915,25.916v47.938H66.587
			c-18.472,0-33.499,15.028-33.499,33.499v253.28H19.925C8.938,398.739,0,407.677,0,418.664c0,30.453,24.775,55.229,55.229,55.229
			h401.543c30.452,0,55.229-24.775,55.229-55.229C512,407.677,503.063,398.739,492.075,398.739L492.075,398.739z M129.905,64.022
			c0-6.019,4.896-10.916,10.915-10.916h230.36c6.02,0,10.915,4.896,10.915,10.916v299.511h-252.19V64.022z M83.294,363.533V162.165
			h31.611v201.368H83.294z M48.088,145.459c0-10.2,8.299-18.499,18.499-18.499h48.318v20.206h-32.25
			c-7.919,0-14.361,6.443-14.361,14.362v202.645c0,7.919,6.442,14.361,14.361,14.361h346.689c7.919,0,14.361-6.442,14.361-14.361
			v-28.549c0-4.142-3.357-7.5-7.5-7.5c-4.144,0-7.5,3.358-7.5,7.5v27.91h-31.611V162.165h31.611v138.396c0,4.143,3.356,7.5,7.5,7.5
			c4.143,0,7.5-3.357,7.5-7.5V161.527c0-7.919-6.442-14.362-14.361-14.362h-32.25V126.96h48.318c10.2,0,18.499,8.299,18.499,18.499
			v253.28H48.088V145.459z M183.7,413.739h144.6v7.539c0,4.156-3.382,7.539-7.539,7.539H191.239c-4.157,0-7.539-3.383-7.539-7.539
			V413.739z M456.771,458.893H55.229C33.047,458.893,15,440.846,15,418.664c0-2.716,2.209-4.925,4.925-4.925H168.7v7.539
			c0,12.428,10.111,22.539,22.539,22.539H320.76c12.429,0,22.539-10.111,22.539-22.539v-7.539h148.775
			c2.716,0,4.925,2.209,4.925,4.925C497,440.846,478.953,458.893,456.771,458.893z"/>
		<path fill="#291238" d="M165.735,150.647h20.436c4.143,0,7.5-3.358,7.5-7.5s-3.357-7.5-7.5-7.5h-20.436
			c-0.294,0-0.532-0.239-0.532-0.532V88.1c0-0.293,0.238-0.532,0.532-0.532h180.529c0.294,0,0.532,0.239,0.532,0.532v47.014
			c0,0.293-0.238,0.532-0.532,0.532H221.233c-4.143,0-7.5,3.358-7.5,7.5s3.357,7.5,7.5,7.5h125.031
			c8.564,0,15.532-6.968,15.532-15.532V88.1c0-8.564-6.968-15.532-15.532-15.532H165.735c-8.564,0-15.532,6.968-15.532,15.532
			v47.014C150.203,143.679,157.171,150.647,165.735,150.647L165.735,150.647z"/>
		<path fill="#291238" d="M166.409,240.794h28.588c8.937,0,16.206-7.27,16.206-16.206V196c0-8.936-7.27-16.206-16.206-16.206
			h-28.588c-8.937,0-16.206,7.27-16.206,16.206v28.588C150.203,233.524,157.473,240.794,166.409,240.794z M165.203,196
			c0-0.665,0.541-1.206,1.206-1.206h28.588c0.665,0,1.206,0.541,1.206,1.206v28.588c0,0.665-0.541,1.206-1.206,1.206h-28.588
			c-0.665,0-1.206-0.541-1.206-1.206V196z"/>
		<path fill="#291238" d="M270.294,179.794h-28.588c-8.937,0-16.206,7.27-16.206,16.206v28.588c0,8.936,7.27,16.206,16.206,16.206
			h28.588c8.937,0,16.206-7.27,16.206-16.206V196C286.5,187.064,279.23,179.794,270.294,179.794z M271.5,224.588
			c0,0.665-0.541,1.206-1.206,1.206h-28.588c-0.665,0-1.206-0.541-1.206-1.206V196c0-0.665,0.541-1.206,1.206-1.206h28.588
			c0.665,0,1.206,0.541,1.206,1.206V224.588z"/>
		<path fill="#291238" d="M345.591,179.794h-28.588c-8.937,0-16.206,7.27-16.206,16.206v28.588c0,8.936,7.271,16.206,16.206,16.206
			h28.588c8.938,0,16.206-7.27,16.206-16.206V196C361.797,187.064,354.527,179.794,345.591,179.794z M346.797,224.588
			c0,0.665-0.541,1.206-1.206,1.206h-28.588c-0.665,0-1.206-0.541-1.206-1.206V196c0-0.665,0.541-1.206,1.206-1.206h28.588
			c0.665,0,1.206,0.541,1.206,1.206V224.588z"/>
		<path fill="#291238" d="M166.409,328.127h28.588c8.937,0,16.206-7.27,16.206-16.206v-28.588c0-8.937-7.27-16.206-16.206-16.206
			h-28.588c-8.937,0-16.206,7.27-16.206,16.206v28.588C150.203,320.857,157.473,328.127,166.409,328.127z M165.203,283.333
			c0-0.665,0.541-1.206,1.206-1.206h28.588c0.665,0,1.206,0.541,1.206,1.206v28.588c0,0.665-0.541,1.206-1.206,1.206h-28.588
			c-0.665,0-1.206-0.541-1.206-1.206V283.333z"/>
		<path fill="#291238" d="M270.294,267.127h-28.588c-8.937,0-16.206,7.27-16.206,16.206v28.588c0,8.937,7.27,16.206,16.206,16.206
			h28.588c8.937,0,16.206-7.27,16.206-16.206v-28.588C286.5,274.396,279.23,267.127,270.294,267.127z M271.5,311.922
			c0,0.665-0.541,1.206-1.206,1.206h-28.588c-0.665,0-1.206-0.541-1.206-1.206v-28.588c0-0.665,0.541-1.206,1.206-1.206h28.588
			c0.665,0,1.206,0.541,1.206,1.206V311.922z"/>
		<path fill="#291238" d="M345.591,267.127h-28.588c-8.937,0-16.206,7.27-16.206,16.206v28.588c0,8.937,7.271,16.206,16.206,16.206
			h28.588c8.938,0,16.206-7.27,16.206-16.206v-28.588C361.797,274.396,354.527,267.127,345.591,267.127z M346.797,311.922
			c0,0.665-0.541,1.206-1.206,1.206h-28.588c-0.665,0-1.206-0.541-1.206-1.206v-28.588c0-0.665,0.541-1.206,1.206-1.206h28.588
			c0.665,0,1.206,0.541,1.206,1.206V311.922z"/>
	</g>
</g>
</svg>
