<?xml version="1.0" encoding="utf-8"?>
<!-- Generator: Adobe Illustrator 16.0.0, SVG Export Plug-In . SVG Version: 6.00 Build 0)  -->
<!DOCTYPE svg PUBLIC "-//W3C//DTD SVG 1.1//EN" "http://www.w3.org/Graphics/SVG/1.1/DTD/svg11.dtd">
<svg version="1.1" id="Capa_1" xmlns="http://www.w3.org/2000/svg" xmlns:xlink="http://www.w3.org/1999/xlink" x="0px" y="0px"
	 width="512px" height="512px" viewBox="-58.182 0 512 512" enable-background="new -58.182 0 512 512" xml:space="preserve">
<g>
	<g>
		<path fill="#291238" d="M353.042,134.14c-4.668-0.004-9.311,0.711-13.762,2.117c0.424-3.355,0.637-6.732,0.642-10.113
			c-0.83-49.454-41.595-88.872-91.049-88.041c-36.087,0.606-68.285,22.816-81.669,56.337c-25.881-16.049-59.873-8.077-75.92,17.805
			c-5.225,8.426-8.081,18.104-8.269,28.017c-6.968-4.022-14.875-6.135-22.92-6.122c-24.731,0-44.778,20.049-44.778,44.778
			s20.047,44.778,44.778,44.778c3.532,0,6.396-2.864,6.396-6.397c0-3.532-2.864-6.396-6.396-6.396
			c-17.663-0.287-31.748-14.838-31.461-32.5c0.287-17.663,14.837-31.748,32.5-31.461c10.752,0.176,20.696,5.74,26.468,14.813
			c1.935,2.957,5.898,3.784,8.855,1.851c2.555-1.674,3.572-4.918,2.429-7.748c-2.015-4.858-3.065-10.063-3.096-15.321
			c0.256-23.182,19.229-41.782,42.411-41.58c10.33,0.041,20.295,3.822,28.052,10.645c2.663,2.322,6.704,2.045,9.024-0.618
			c0.629-0.721,1.088-1.575,1.344-2.498c11.705-40.729,54.211-64.258,94.94-52.553c32.338,9.293,54.851,38.57,55.522,72.211
			c-0.027,6.705-0.963,13.376-2.783,19.832c-0.946,3.403,1.046,6.93,4.45,7.875c1.842,0.512,3.815,0.174,5.382-0.923
			c5.533-3.903,12.14-5.995,18.91-5.993c17.664,0,31.983,14.32,31.983,31.983c0,17.664-14.319,31.983-31.983,31.983
			c-3.533,0-6.397,2.865-6.397,6.397s2.864,6.396,6.397,6.396c24.729,0,44.776-20.047,44.776-44.777
			C397.82,154.188,377.773,134.14,353.042,134.14z"/>
	</g>
</g>
<g>
	<g>
		<path fill="#291238" d="M315.301,281.269H97.806c-10.599,0-19.191,8.593-19.191,19.19v25.589c0,10.6,8.592,19.19,19.191,19.19
			h217.495c10.598,0,19.19-8.593,19.19-19.19v-25.589C334.491,289.861,325.898,281.269,315.301,281.269z M321.698,326.048
			c0,3.532-2.864,6.396-6.396,6.396H97.806c-3.533,0-6.397-2.864-6.397-6.396v-25.589c0-3.532,2.864-6.396,6.397-6.396h217.495
			c3.532,0,6.396,2.863,6.396,6.396v25.589H321.698z"/>
	</g>
</g>
<g>
	<g>
		<path fill="#291238" d="M297.556,300.856c-6.816,0.043-12.321,5.58-12.321,12.396c0.032,6.863,5.609,12.407,12.476,12.397
			c6.847-0.042,12.363-5.627,12.318-12.476C309.986,306.33,304.402,300.813,297.556,300.856z M297.709,313.656
			c-0.191,0-0.32-0.211-0.32-0.403l0.32-0.396V313.656z"/>
	</g>
</g>
<g>
	<g>
		<path fill="#291238" d="M230.861,306.856H109.319c-3.533,0-6.396,2.863-6.396,6.396c0,3.533,2.863,6.397,6.396,6.397H230.86
			c3.533,0,6.396-2.864,6.396-6.397C237.258,309.721,234.395,306.856,230.861,306.856z"/>
	</g>
</g>
<g>
	<g>
		<path fill="#291238" d="M270.362,306.856h-17.017c-3.533,0-6.396,2.863-6.396,6.396c0,3.533,2.862,6.397,6.396,6.397h17.017
			c3.532,0,6.396-2.864,6.396-6.397C276.759,309.721,273.895,306.856,270.362,306.856z"/>
	</g>
</g>
<g>
	<g>
		<path fill="#291238" d="M315.301,358.032H97.806c-10.599,0-19.191,8.591-19.191,19.19v25.586c0,10.6,8.592,19.191,19.191,19.191
			h217.495c10.598,0,19.19-8.592,19.19-19.191v-25.586C334.491,366.624,325.898,358.032,315.301,358.032z M321.698,402.81
			c0,3.533-2.864,6.398-6.396,6.398H97.806c-3.533,0-6.397-2.865-6.397-6.398v-25.586c0-3.532,2.864-6.397,6.397-6.397h217.495
			c3.532,0,6.396,2.865,6.396,6.397v25.586H321.698z"/>
	</g>
</g>
<g>
	<g>
		<path fill="#291238" d="M297.556,377.619c-6.816,0.042-12.321,5.579-12.321,12.396c0.032,6.864,5.609,12.408,12.476,12.398
			c6.847-0.043,12.363-5.628,12.318-12.477C309.986,383.093,304.402,377.577,297.556,377.619z M297.709,390.42
			c-0.191,0-0.32-0.212-0.32-0.404l0.32-0.396V390.42z"/>
	</g>
</g>
<g>
	<g>
		<path fill="#291238" d="M230.861,383.62H109.319c-3.533,0-6.396,2.862-6.396,6.396c0,3.534,2.863,6.396,6.396,6.396H230.86
			c3.533,0,6.396-2.862,6.396-6.396C237.257,386.482,234.395,383.62,230.861,383.62z"/>
	</g>
</g>
<g>
	<g>
		<path fill="#291238" d="M270.362,383.62h-17.017c-3.533,0-6.396,2.862-6.396,6.396c0,3.534,2.862,6.396,6.396,6.396h17.017
			c3.532,0,6.396-2.862,6.396-6.396C276.759,386.482,273.895,383.62,270.362,383.62z"/>
	</g>
</g>
<g>
	<g>
		<path fill="#291238" d="M315.301,204.506H97.806c-10.599,0-19.191,8.593-19.191,19.19v25.588c0,10.599,8.592,19.189,19.191,19.189
			h217.495c10.598,0,19.19-8.591,19.19-19.189v-25.588C334.491,213.099,325.898,204.506,315.301,204.506z M321.698,249.284
			c0,3.533-2.864,6.396-6.396,6.396H97.806c-3.533,0-6.397-2.863-6.397-6.396v-25.588c0-3.532,2.864-6.397,6.397-6.397h217.495
			c3.532,0,6.396,2.864,6.396,6.397v25.588H321.698z"/>
	</g>
</g>
<g>
	<g>
		<path fill="#291238" d="M308.021,234.744c-1.231-6.796-7.741-11.306-14.537-10.073c-3.22,0.584-6.082,2.407-7.973,5.077
			c-1.899,2.68-2.642,6.011-2.061,9.243c1.075,5.953,6.257,10.287,12.308,10.292c0.699,0,1.396-0.058,2.085-0.173
			c3.285-0.541,6.213-2.387,8.118-5.116C307.866,241.313,308.608,237.979,308.021,234.744z M295.431,236.996l0.289-0.507l0.031,0.8
			C295.464,237.29,295.444,237.13,295.431,236.996z"/>
	</g>
</g>
<g>
	<g>
		<path fill="#291238" d="M229.582,230.094H108.04c-3.532,0-6.396,2.863-6.396,6.396c0,3.533,2.864,6.396,6.396,6.396h121.542
			c3.532,0,6.396-2.863,6.396-6.396C235.978,232.957,233.114,230.094,229.582,230.094z"/>
	</g>
</g>
<g>
	<g>
		<path fill="#291238" d="M266.274,230.094h-17.017c-3.532,0-6.396,2.863-6.396,6.396c0,3.533,2.863,6.396,6.396,6.396h17.017
			c3.532,0,6.396-2.863,6.396-6.396C272.671,232.957,269.808,230.094,266.274,230.094z"/>
	</g>
</g>
<g>
	<g>
		<path fill="#291238" d="M179.091,142.411l-19.191-19.191c-2.498-2.497-6.547-2.497-9.045,0l-19.189,19.191
			c-2.454,2.541-2.385,6.591,0.156,9.045c2.479,2.395,6.409,2.395,8.889,0l8.271-8.271v42.129c0,3.535,2.864,6.397,6.396,6.397
			s6.397-2.862,6.397-6.397v-42.129l8.271,8.271c2.542,2.454,6.591,2.384,9.045-0.158
			C181.485,148.819,181.485,144.89,179.091,142.411z"/>
	</g>
</g>
<g>
	<g>
		<path fill="#291238" d="M281.284,161.603c-2.479-2.395-6.408-2.395-8.89,0l-8.271,8.271v-42.13c0-3.532-2.864-6.396-6.396-6.396
			c-3.533,0-6.396,2.864-6.396,6.396v42.13l-8.273-8.271c-2.54-2.455-6.59-2.386-9.045,0.156c-2.393,2.479-2.393,6.408,0,8.889
			l19.191,19.19c2.498,2.497,6.547,2.497,9.045,0l19.19-19.19C283.896,168.106,283.826,164.056,281.284,161.603z"/>
	</g>
</g>
</svg>
