<?xml version="1.0" encoding="utf-8"?>
<!-- Generator: Adobe Illustrator 16.0.0, SVG Export Plug-In . SVG Version: 6.00 Build 0)  -->
<!DOCTYPE svg PUBLIC "-//W3C//DTD SVG 1.1//EN" "http://www.w3.org/Graphics/SVG/1.1/DTD/svg11.dtd">
<svg version="1.1" id="Layer_1" xmlns="http://www.w3.org/2000/svg" xmlns:xlink="http://www.w3.org/1999/xlink" x="0px" y="0px"
	 width="512px" height="512px" viewBox="-16 -16 512 512" enable-background="new -16 -16 512 512" xml:space="preserve">
<path fill="#330033" d="M130.047,384H112v16h72v-16h-37.246l19.199-64H184v-16H32c-8.836,0-16-7.164-16-16v-16h168v-16H16V32
	c0-8.836,7.164-16,16-16h336c8.836,0,16,7.164,16,16v64h16V32c0-17.672-14.328-32-32-32H32C14.328,0,0,14.328,0,32v256
	c0,17.672,14.328,32,32,32h117.246L130.047,384z"/>
<path fill="#330033" d="M352,80v16h16V72c0-4.418-3.582-8-8-8H40c-4.418,0-8,3.582-8,8v96c0,4.418,3.582,8,8,8h144v-16H48V80H352z"
	/>
<path fill="#330033" d="M136,240v-40c0-4.418-3.582-8-8-8H40c-4.418,0-8,3.582-8,8v40h16v-32h72v32H136z"/>
<path fill="#330033" d="M152,200v40h16v-32h16v-16h-24C155.582,192,152,195.582,152,200z"/>
<path fill="#330033" d="M32,32h16v16H32V32z"/>
<path fill="#330033" d="M64,32h16v16H64V32z"/>
<path fill="#330033" d="M96,32h16v16H96V32z"/>
<path fill="#330033" d="M424,176v-40c0-13.254-10.746-24-24-24H224c-13.254,0-24,10.746-24,24v240c0,13.254,10.746,24,24,24h112v-16
	H224c-4.418,0-8-3.582-8-8v-8h120v-16H216V136c0-4.418,3.582-8,8-8h176c4.418,0,8,3.582,8,8v40H424z"/>
<path fill="#330033" d="M240,144h24v16h-24V144z"/>
<path fill="#330033" d="M280,144h24v16h-24V144z"/>
<path fill="#330033" d="M320,144h24v16h-24V144z"/>
<path fill="#330033" d="M360,144h24v16h-24V144z"/>
<path fill="#330033" d="M248,192h104v-16H240c-4.418,0-8,3.582-8,8v56c0,4.418,3.582,8,8,8h96v-16h-88V192z"/>
<path fill="#330033" d="M336,280v-16h-96c-4.418,0-8,3.582-8,8v56c0,4.418,3.582,8,8,8h96v-16h-88v-40H336z"/>
<path fill="#330033" d="M456,192h-80c-13.254,0-24,10.746-24,24v160c0,13.254,10.746,24,24,24h80c13.254,0,24-10.746,24-24V216
	C480,202.746,469.254,192,456,192z M464,376c0,4.418-3.582,8-8,8h-80c-4.418,0-8-3.582-8-8v-8h96V376z M464,352h-96V216
	c0-4.418,3.582-8,8-8h80c4.418,0,8,3.582,8,8V352z"/>
<path fill="#330033" d="M440,224h-48c-4.418,0-8,3.582-8,8v32c0,4.418,3.582,8,8,8h48c4.418,0,8-3.582,8-8v-32
	C448,227.582,444.418,224,440,224z M432,256h-32v-16h32V256z"/>
<path fill="#330033" d="M440,288h-48c-4.418,0-8,3.582-8,8v32c0,4.418,3.582,8,8,8h48c4.418,0,8-3.582,8-8v-32
	C448,291.582,444.418,288,440,288z M432,320h-32v-16h32V320z"/>
</svg>
